<svg width="60" height="20" viewBox="0 0 60 20" fill="none" xmlns="http://www.w3.org/2000/svg">
<g clip-path="url(#clip0_202_9770)">
<path d="M58.1308 12.0921L59.7954 13.1531C59.2551 13.9139 57.963 15.2192 55.7291 15.2192C52.955 15.2192 50.8892 13.1671 50.8892 10.5566C50.8892 7.77864 52.977 5.89404 55.4955 5.89404C58.0286 5.89404 59.2697 7.82043 59.6713 8.86043L59.8903 9.39096L53.3639 11.9735C53.8603 12.9088 54.6342 13.3835 55.7291 13.3835C56.8242 13.3835 57.5833 12.8669 58.1308 12.0921ZM53.0135 10.4101L57.3717 8.67903C57.1308 8.09976 56.4155 7.68799 55.5612 7.68799C54.4736 7.68799 52.9624 8.60934 53.0135 10.4101Z" fill="#FF302F"/>
<path d="M47.7432 1.14074H49.8455V14.7934H47.7432V1.14062V1.14074Z" fill="#20B15A"/>
<path d="M44.4287 6.25707H46.4582V14.5492C46.4582 17.9902 44.3338 19.4071 41.8225 19.4071C39.4573 19.4071 38.0338 17.8855 37.5008 16.6501L39.3624 15.9102C39.6981 16.671 40.5085 17.5715 41.8225 17.5715C43.4358 17.5715 44.4287 16.6152 44.4287 14.8284V14.1584H44.3557C43.8738 14.7167 42.954 15.2192 41.786 15.2192C39.3477 15.2192 37.1138 13.188 37.1138 10.5707C37.1138 7.9392 39.3477 5.88721 41.786 5.88721C42.9468 5.88721 43.8738 6.38278 44.3557 6.92721H44.4287V6.25718V6.25707ZM44.5746 10.5707C44.5746 8.9234 43.4285 7.72284 41.9685 7.72284C40.4938 7.72284 39.2528 8.9234 39.2528 10.5707C39.2528 12.1969 40.4938 13.3765 41.9685 13.3765C43.4286 13.3836 44.5747 12.1969 44.5747 10.5707H44.5746Z" fill="#3686F7"/>
<path d="M25.5724 10.5357C25.5724 13.223 23.3824 15.1982 20.6959 15.1982C18.0095 15.1982 15.8193 13.216 15.8193 10.5357C15.8193 7.8345 18.0095 5.86621 20.6959 5.86621C23.3824 5.86621 25.5724 7.8345 25.5724 10.5357ZM23.4408 10.5357C23.4408 8.86061 22.1704 7.70879 20.6959 7.70879C19.2213 7.70879 17.951 8.86061 17.951 10.5357C17.951 12.1969 19.2213 13.3626 20.6959 13.3626C22.1706 13.3626 23.4408 12.1969 23.4408 10.5357Z" fill="#FF302F"/>
<path d="M36.2233 10.5566C36.2233 13.2438 34.0331 15.2191 31.3467 15.2191C28.6602 15.2191 26.4702 13.2437 26.4702 10.5566C26.4702 7.85539 28.6602 5.89404 31.3467 5.89404C34.0331 5.89404 36.2233 7.84844 36.2233 10.5566ZM34.0842 10.5566C34.0842 8.88149 32.814 7.72967 31.3394 7.72967C29.8648 7.72967 28.5945 8.88149 28.5945 10.5566C28.5945 12.2177 29.8648 13.3834 31.3394 13.3834C32.8213 13.3834 34.0842 12.2108 34.0842 10.5566Z" fill="#FFBA40"/>
<path d="M7.80373 13.1741C4.7449 13.1741 2.35053 10.8148 2.35053 7.89024C2.35053 4.96576 4.7449 2.60654 7.80373 2.60654C9.45361 2.60654 10.6581 3.22772 11.5487 4.02346L13.0161 2.62055C11.7751 1.48285 10.1179 0.617188 7.80373 0.617188C3.61346 0.6173 0.0874023 3.88397 0.0874023 7.89024C0.0874023 11.8967 3.61346 15.1633 7.80373 15.1633C10.0669 15.1633 11.7751 14.4514 13.111 13.1252C14.4834 11.8129 14.9068 9.97024 14.9068 8.47657C14.9068 8.0089 14.8485 7.52733 14.7827 7.17136H7.80373V9.11175H12.7752C12.6292 10.3263 12.2277 11.1569 11.6363 11.7222C10.9209 12.4133 9.78947 13.1741 7.80373 13.1741Z" fill="#3686F7"/>
</g>
<defs>
<clipPath id="clip0_202_9770">
<rect width="60" height="18.8235" fill="white" transform="translate(0 0.588379)"/>
</clipPath>
</defs>
</svg>
