<svg width="21" height="20" viewBox="0 0 21 20" fill="none" xmlns="http://www.w3.org/2000/svg">
<g clip-path="url(#clip0_311_3983)">
<path d="M18.3183 3.84172C17.8926 3.41589 17.3873 3.0781 16.8311 2.84763C16.2748 2.61716 15.6787 2.49854 15.0766 2.49854C14.4745 2.49854 13.8784 2.61716 13.3221 2.84763C12.7659 3.0781 12.2606 3.41589 11.8349 3.84172L10.9516 4.72506L10.0683 3.84172C9.20852 2.98198 8.04246 2.49898 6.8266 2.49898C5.61074 2.49898 4.44467 2.98198 3.58493 3.84172C2.72519 4.70147 2.24219 5.86753 2.24219 7.08339C2.24219 8.29925 2.72519 9.46531 3.58493 10.3251L4.46826 11.2084L10.9516 17.6917L17.4349 11.2084L18.3183 10.3251C18.7441 9.89943 19.0819 9.39407 19.3124 8.83785C19.5428 8.28164 19.6615 7.68546 19.6615 7.08339C19.6615 6.48132 19.5428 5.88514 19.3124 5.32893C19.0819 4.77271 18.7441 4.26735 18.3183 3.84172V3.84172Z" stroke="#5C596D" stroke-width="2" stroke-linecap="round" stroke-linejoin="round"/>
</g>
<defs>
<clipPath id="clip0_311_3983">
<rect width="20" height="20" fill="white" transform="translate(0.95166)"/>
</clipPath>
</defs>
</svg>
