<svg width="40" height="40" viewBox="0 0 40 40" fill="none" xmlns="http://www.w3.org/2000/svg">
<path d="M27.3666 13.8417C26.941 13.4158 26.4356 13.078 25.8794 12.8476C25.3232 12.6171 24.727 12.4985 24.1249 12.4985C23.5229 12.4985 22.9267 12.6171 22.3705 12.8476C21.8143 13.078 21.3089 13.4158 20.8833 13.8417L19.9999 14.725L19.1166 13.8417C18.2569 12.9819 17.0908 12.4989 15.8749 12.4989C14.6591 12.4989 13.493 12.9819 12.6333 13.8417C11.7735 14.7014 11.2905 15.8675 11.2905 17.0833C11.2905 18.2992 11.7735 19.4653 12.6333 20.325L13.5166 21.2083L19.9999 27.6917L26.4833 21.2083L27.3666 20.325C27.7924 19.8994 28.1302 19.394 28.3607 18.8378C28.5912 18.2816 28.7098 17.6854 28.7098 17.0833C28.7098 16.4813 28.5912 15.8851 28.3607 15.3289C28.1302 14.7727 27.7924 14.2673 27.3666 13.8417Z" fill="#1B5BF7"/>
</svg>
