<svg width="25" height="24" viewBox="0 0 25 24" fill="none" xmlns="http://www.w3.org/2000/svg">
<path d="M21.4517 3H3.45166C2.45166 3 1.45166 4 1.45166 5V19C1.45166 20.1 2.35166 21 3.45166 21H21.4517C22.4517 21 23.4517 20 23.4517 19V5C23.4517 4 22.4517 3 21.4517 3ZM21.4517 18.92C21.4317 18.95 21.3917 18.98 21.3717 19H3.45166V5.08L3.53166 5H21.3617C21.3917 5.02 21.4217 5.06 21.4417 5.08V18.92H21.4517ZM11.4517 15.51L8.95166 12.5L5.45166 17H19.4517L14.9517 11L11.4517 15.51Z" fill="#9692B0"/>
</svg>
