<svg width="20" height="20" viewBox="0 0 20 20" fill="none" xmlns="http://www.w3.org/2000/svg">
<path d="M10.0001 1.66663C6.77508 1.66663 4.16675 4.27496 4.16675 7.49996C4.16675 11.875 10.0001 18.3333 10.0001 18.3333C10.0001 18.3333 15.8334 11.875 15.8334 7.49996C15.8334 4.27496 13.2251 1.66663 10.0001 1.66663ZM5.83341 7.49996C5.83341 5.19996 7.70008 3.33329 10.0001 3.33329C12.3001 3.33329 14.1667 5.19996 14.1667 7.49996C14.1667 9.89996 11.7667 13.4916 10.0001 15.7333C8.26675 13.5083 5.83341 9.87496 5.83341 7.49996Z" fill="#5C596D"/>
<path d="M10.0001 9.58329C11.1507 9.58329 12.0834 8.65055 12.0834 7.49996C12.0834 6.34937 11.1507 5.41663 10.0001 5.41663C8.84949 5.41663 7.91675 6.34937 7.91675 7.49996C7.91675 8.65055 8.84949 9.58329 10.0001 9.58329Z" fill="#5C596D"/>
</svg>
