<svg width="153" height="52" viewBox="0 0 153 52" fill="none" xmlns="http://www.w3.org/2000/svg">
<path d="M0.587168 18.6754C2.34883 18.6754 4.10724 18.6754 5.86239 18.6754C5.86239 19.4551 5.85913 20.2222 5.86239 20.8799C5.87867 23.7487 5.87216 26.5199 6.01544 29.3854C6.23361 33.7424 10.4961 35.9436 13.9999 33.5926C15.6216 32.505 16.0905 30.841 16.1263 29.0403C16.1784 26.3408 16.1426 23.638 16.1458 20.9353C16.1458 20.2645 16.1458 19.5937 16.1458 18.734C17.9303 18.734 19.7668 18.7275 21.4406 18.7275C21.4406 18.8191 21.4406 18.8871 21.4406 18.975C21.4634 22.9672 21.7402 26.9823 21.4178 30.9452C20.9586 36.6307 16.3738 40.128 10.2747 39.8935C4.81386 39.6851 0.746727 35.6343 0.596937 30.0986C0.499247 26.5557 0.577399 23.0096 0.587168 19.4634C0.587168 19.2485 0.587168 19.0531 0.587168 18.6754Z" fill="#1B5BF7"/>
<path d="M1.54148 48.1776C1.54148 46.7904 1.53171 45.5596 1.54799 44.3287C1.55451 43.9509 1.54799 43.8011 1.548 43.1499C7.78057 43.1499 14.0848 43.0978 20.4085 43.0978C20.4085 44.7487 20.4085 46.3932 20.4085 48.1776C14.2085 48.1776 8.01503 48.1776 1.54148 48.1776Z" fill="#1B5BF7"/>
<path d="M50.4438 18.7033C52.7787 18.7033 54.6557 19.4243 56.0749 20.8664C57.517 22.2857 58.2381 24.2771 58.2381 26.8409V38H53.4311V27.4933C53.4311 26.0054 53.0534 24.8723 52.298 24.094C51.5426 23.2928 50.5125 22.8923 49.2078 22.8923C47.903 22.8923 46.8615 23.2928 46.0832 24.094C45.3278 24.8723 44.9501 26.0054 44.9501 27.4933V38H40.1431V27.4933C40.1431 26.0054 39.7654 24.8723 39.01 24.094C38.2546 23.2928 37.2246 22.8923 35.9198 22.8923C34.5922 22.8923 33.5392 23.2928 32.7609 24.094C32.0055 24.8723 31.6278 26.0054 31.6278 27.4933V38H26.8208V18.978H31.6278V21.2785C32.2459 20.4773 33.0356 19.8478 33.997 19.39C34.9813 18.9322 36.0572 18.7033 37.2246 18.7033C38.7125 18.7033 40.0401 19.0238 41.2075 19.6647C42.3749 20.2827 43.2791 21.1755 43.92 22.3429C44.5381 21.2441 45.4308 20.3629 46.5982 19.699C47.7885 19.0352 49.0704 18.7033 50.4438 18.7033ZM61.5635 28.4203C61.5635 26.4975 61.9412 24.7922 62.6966 23.3043C63.4749 21.8164 64.5164 20.6719 65.8212 19.8707C67.1488 19.0695 68.6253 18.669 70.2505 18.669C71.6697 18.669 72.9058 18.9551 73.9587 19.5274C75.0346 20.0996 75.893 20.8207 76.5339 21.6905V18.978H81.3753V38H76.5339V35.2188C75.9159 36.1115 75.0575 36.8555 73.9587 37.4506C72.8829 38.0229 71.6354 38.309 70.2162 38.309C68.6138 38.309 67.1488 37.897 65.8212 37.0729C64.5164 36.2489 63.4749 35.0929 62.6966 33.605C61.9412 32.0942 61.5635 30.366 61.5635 28.4203ZM76.5339 28.489C76.5339 27.3216 76.305 26.3258 75.8472 25.5018C75.3894 24.6548 74.7714 24.0139 73.9931 23.579C73.2148 23.1212 72.3793 22.8923 71.4866 22.8923C70.5938 22.8923 69.7698 23.1097 69.0144 23.5446C68.259 23.9796 67.641 24.6205 67.1603 25.4674C66.7025 26.2915 66.4736 27.2758 66.4736 28.4203C66.4736 29.5648 66.7025 30.572 67.1603 31.4419C67.641 32.2888 68.259 32.9412 69.0144 33.399C69.7927 33.8568 70.6167 34.0857 71.4866 34.0857C72.3793 34.0857 73.2148 33.8683 73.9931 33.4333C74.7714 32.9755 75.3894 32.3346 75.8472 31.5105C76.305 30.6636 76.5339 29.6564 76.5339 28.489ZM90.8772 21.9309C91.4952 20.9237 92.2964 20.134 93.2807 19.5617C94.2879 18.9894 95.4324 18.7033 96.7142 18.7033V23.7507H95.4438C93.933 23.7507 92.7885 24.1055 92.0102 24.8151C91.2549 25.5247 90.8772 26.7608 90.8772 28.5233V38H86.0702V18.978H90.8772V21.9309ZM111.214 38L104.759 29.8968V38H99.952V12.5915H104.759V27.0469L111.145 18.978H117.395L109.017 28.5233L117.463 38H111.214ZM137.686 28.077C137.686 28.7637 137.641 29.3817 137.549 29.9311H123.643C123.758 31.3045 124.238 32.3804 125.085 33.1587C125.932 33.9369 126.974 34.3261 128.21 34.3261C129.995 34.3261 131.266 33.5592 132.021 32.0256H137.206C136.656 33.8568 135.603 35.3676 134.047 36.5579C132.49 37.7253 130.579 38.309 128.313 38.309C126.482 38.309 124.833 37.9084 123.368 37.1073C121.926 36.2832 120.793 35.1272 119.969 33.6394C119.168 32.1515 118.767 30.4347 118.767 28.489C118.767 26.5204 119.168 24.7922 119.969 23.3043C120.77 21.8164 121.892 20.6719 123.334 19.8707C124.776 19.0695 126.436 18.669 128.313 18.669C130.121 18.669 131.735 19.0581 133.154 19.8364C134.596 20.6147 135.706 21.7248 136.485 23.1669C137.286 24.5862 137.686 26.2228 137.686 28.077ZM132.708 26.7035C132.685 25.4674 132.239 24.4831 131.369 23.7507C130.499 22.9953 129.434 22.6176 128.175 22.6176C126.985 22.6176 125.978 22.9838 125.154 23.7163C124.353 24.4259 123.861 25.4217 123.677 26.7035H132.708ZM146.792 22.9266V32.1286C146.792 32.7695 146.941 33.2388 147.238 33.5363C147.559 33.811 148.085 33.9484 148.818 33.9484H151.05V38H148.028C143.976 38 141.951 36.0314 141.951 32.0942V22.9266H139.684V18.978H141.951V14.274H146.792V18.978H151.05V22.9266H146.792Z" fill="#1D1A2F"/>
</svg>
