<svg width="25" height="24" viewBox="0 0 25 24" fill="none" xmlns="http://www.w3.org/2000/svg">
<path d="M15.9517 14H15.1617L14.8817 13.73C15.8617 12.59 16.4517 11.11 16.4517 9.5C16.4517 5.91 13.5417 3 9.95166 3C6.36166 3 3.45166 5.91 3.45166 9.5C3.45166 13.09 6.36166 16 9.95166 16C11.5617 16 13.0417 15.41 14.1817 14.43L14.4517 14.71V15.5L19.4517 20.49L20.9417 19L15.9517 14ZM9.95166 14C7.46166 14 5.45166 11.99 5.45166 9.5C5.45166 7.01 7.46166 5 9.95166 5C12.4417 5 14.4517 7.01 14.4517 9.5C14.4517 11.99 12.4417 14 9.95166 14Z" fill="#9692B0"/>
</svg>
