<svg width="21" height="20" viewBox="0 0 21 20" fill="none" xmlns="http://www.w3.org/2000/svg">
<path d="M13.9102 10.8333C14.5352 10.8333 15.0852 10.4916 15.3685 9.97496L18.3518 4.56663C18.6602 4.01663 18.2602 3.33329 17.6268 3.33329H5.29349L4.51016 1.66663H1.78516V3.33329H3.45182L6.45182 9.65829L5.32682 11.6916C4.71849 12.8083 5.51849 14.1666 6.78516 14.1666H16.7852V12.5H6.78516L7.70182 10.8333H13.9102ZM6.08516 4.99996H16.2102L13.9102 9.16663H8.06016L6.08516 4.99996ZM6.78516 15C5.86849 15 5.12682 15.75 5.12682 16.6666C5.12682 17.5833 5.86849 18.3333 6.78516 18.3333C7.70182 18.3333 8.45182 17.5833 8.45182 16.6666C8.45182 15.75 7.70182 15 6.78516 15ZM15.1185 15C14.2018 15 13.4602 15.75 13.4602 16.6666C13.4602 17.5833 14.2018 18.3333 15.1185 18.3333C16.0352 18.3333 16.7852 17.5833 16.7852 16.6666C16.7852 15.75 16.0352 15 15.1185 15Z" fill="#5C596D"/>
</svg>
