<svg width="20" height="20" viewBox="0 0 20 20" fill="none" xmlns="http://www.w3.org/2000/svg">
<path d="M12.9585 10.8334C13.5835 10.8334 14.1335 10.4917 14.4168 9.97502L17.4002 4.56669C17.7085 4.01669 17.3085 3.33335 16.6752 3.33335H4.34183L3.5585 1.66669H0.833496V3.33335H2.50016L5.50016 9.65835L4.37516 11.6917C3.76683 12.8084 4.56683 14.1667 5.8335 14.1667H15.8335V12.5H5.8335L6.75016 10.8334H12.9585ZM5.1335 5.00002H15.2585L12.9585 9.16669H7.1085L5.1335 5.00002ZM5.8335 15C4.91683 15 4.17516 15.75 4.17516 16.6667C4.17516 17.5834 4.91683 18.3334 5.8335 18.3334C6.75016 18.3334 7.50016 17.5834 7.50016 16.6667C7.50016 15.75 6.75016 15 5.8335 15ZM14.1668 15C13.2502 15 12.5085 15.75 12.5085 16.6667C12.5085 17.5834 13.2502 18.3334 14.1668 18.3334C15.0835 18.3334 15.8335 17.5834 15.8335 16.6667C15.8335 15.75 15.0835 15 14.1668 15Z" fill="white"/>
</svg>
